<svg width="21" height="20" viewBox="0 0 21 20" fill="none" xmlns="http://www.w3.org/2000/svg">
<path fill-rule="evenodd" clip-rule="evenodd" d="M0 19C0 18.7348 0.0850961 18.4804 0.236568 18.2929C0.388039 18.1054 0.593479 18 0.807692 18H20.1923C20.4065 18 20.612 18.1054 20.7634 18.2929C20.9149 18.4804 21 18.7348 21 19C21 19.2652 20.9149 19.5196 20.7634 19.7071C20.612 19.8946 20.4065 20 20.1923 20H0.807692C0.593479 20 0.388039 19.8946 0.236568 19.7071C0.0850961 19.5196 0 19.2652 0 19Z" fill="#445FAC"/>
<path d="M6 10H2C1.44772 10 1 10.3198 1 10.7143V19.2857C1 19.6802 1.44772 20 2 20H6C6.55228 20 7 19.6802 7 19.2857V10.7143C7 10.3198 6.55228 10 6 10Z" fill="#445FAC"/>
<path d="M12.1667 0H8.83333C8.3731 0 8 0.344396 8 0.769231V19.2308C8 19.6556 8.3731 20 8.83333 20H12.1667C12.6269 20 13 19.6556 13 19.2308V0.769231C13 0.344396 12.6269 0 12.1667 0Z" fill="#445FAC"/>
<path d="M19 5H15C14.4477 5 14 5.33579 14 5.75V19.25C14 19.6642 14.4477 20 15 20H19C19.5523 20 20 19.6642 20 19.25V5.75C20 5.33579 19.5523 5 19 5Z" fill="#445FAC"/>
</svg>
