<svg width="32" height="32" viewBox="0 0 32 32" fill="none" xmlns="http://www.w3.org/2000/svg">
<path d="M8 29.3333C10.2091 29.3333 12 27.5425 12 25.3333C12 23.1242 10.2091 21.3333 8 21.3333C5.79086 21.3333 4 23.1242 4 25.3333C4 27.5425 5.79086 29.3333 8 29.3333Z" stroke="#445FAC" stroke-width="2.66667" stroke-linecap="round" stroke-linejoin="round"/>
<path d="M12 25.3334H23.3333C24.571 25.3334 25.758 24.8417 26.6332 23.9665C27.5083 23.0913 28 21.9044 28 20.6667C28 19.429 27.5083 18.242 26.6332 17.3669C25.758 16.4917 24.571 16 23.3333 16H8.66667C7.42899 16 6.24201 15.5084 5.36684 14.6332C4.49167 13.758 4 12.571 4 11.3334C4 10.0957 4.49167 8.90869 5.36684 8.03352C6.24201 7.15835 7.42899 6.66669 8.66667 6.66669H20" stroke="#445FAC" stroke-width="2.66667" stroke-linecap="round" stroke-linejoin="round"/>
<path d="M24 10.6667C26.2091 10.6667 28 8.87583 28 6.66669C28 4.45755 26.2091 2.66669 24 2.66669C21.7909 2.66669 20 4.45755 20 6.66669C20 8.87583 21.7909 10.6667 24 10.6667Z" stroke="#445FAC" stroke-width="2.66667" stroke-linecap="round" stroke-linejoin="round"/>
</svg>
