<svg width="21" height="20" viewBox="0 0 21 20" fill="none" xmlns="http://www.w3.org/2000/svg">
<path d="M10.4697 0C10.6931 0 10.9125 0.0612951 11.1269 0.183594C11.3411 0.305862 11.4997 0.489013 11.6015 0.733398L13.8945 6.17578L19.8252 6.69629C20.1104 6.73703 20.335 6.82815 20.498 6.9707C20.6611 7.11338 20.7837 7.29727 20.8652 7.52148C20.9467 7.74565 20.9617 7.9752 20.9111 8.20996C20.8605 8.44472 20.7329 8.65334 20.5283 8.83594L16.0342 12.7188L17.3799 18.498C17.4409 18.7629 17.4202 19.0025 17.3183 19.2168C17.2165 19.4311 17.0739 19.6092 16.8906 19.751C16.7072 19.8928 16.4926 19.9749 16.248 19.9961C16.0036 20.0172 15.769 19.9559 15.5449 19.8125L10.4697 16.7549L5.39451 19.8125C5.17035 19.9551 4.93593 20.0165 4.69139 19.9961C4.44679 19.9757 4.23226 19.8937 4.04881 19.751C3.86556 19.6083 3.72291 19.4303 3.62108 19.2168C3.51922 19.0033 3.49946 18.7637 3.56053 18.498L4.90526 12.7188L0.411115 8.83594C0.207365 8.65256 0.0798679 8.44369 0.0292793 8.20898C-0.021252 7.97426 -0.00643882 7.74481 0.0742012 7.52148C0.154917 7.29809 0.277511 7.1142 0.441389 6.9707C0.605259 6.82725 0.829746 6.73623 1.11424 6.69629L7.04588 6.17578L9.33885 0.733398C9.44077 0.489011 9.59915 0.305822 9.81346 0.183594C10.0278 0.0613944 10.2464 2.74364e-05 10.4697 0Z" fill="#445FAC"/>
</svg>
