<svg width="16" height="20" viewBox="0 0 16 20" fill="none" xmlns="http://www.w3.org/2000/svg">
<path d="M14.4999 14.9901L10.8499 9.45006L14.2199 5.03006C14.6634 4.43056 14.905 3.70573 14.9099 2.96006V1.27006C14.9091 1.10239 14.8751 0.93653 14.8099 0.782059C14.7447 0.627589 14.6495 0.487562 14.5299 0.370059C14.4123 0.251348 14.272 0.157439 14.1174 0.0938865C13.9628 0.0303341 13.797 -0.00157065 13.6299 5.94559e-05H1.45991C1.29276 -0.00127248 1.12702 0.0306677 0.972332 0.0940195C0.817647 0.157371 0.677113 0.250868 0.558917 0.369065C0.44072 0.487262 0.347223 0.627795 0.283871 0.78248C0.220519 0.937165 0.188579 1.10291 0.189911 1.27006V2.94006C0.192069 3.68311 0.434072 4.40562 0.879911 5.00006L4.23991 9.58006L0.569911 14.9901C0.149245 15.617 -0.0480242 16.3673 0.0099112 17.1201L0.119911 18.8201C0.144839 19.1385 0.287921 19.4361 0.521055 19.6544C0.75419 19.8728 1.06053 19.996 1.37991 20.0001H13.7899C14.0856 19.9733 14.3621 19.8421 14.5699 19.6301C14.7848 19.412 14.9158 19.1252 14.9399 18.8201L15.0499 17.1401C15.1186 16.3815 14.9244 15.6224 14.4999 14.9901ZM10.1899 17.1901H4.95991C4.69469 17.1901 4.44034 17.0847 4.2528 16.8972C4.06527 16.7096 3.95991 16.4553 3.95991 16.1901C3.95991 15.9248 4.06527 15.6705 4.2528 15.483C4.44034 15.2954 4.69469 15.1901 4.95991 15.1901H10.2399C10.5051 15.1901 10.7595 15.2954 10.947 15.483C11.1346 15.6705 11.2399 15.9248 11.2399 16.1901C11.2399 16.4553 11.1346 16.7096 10.947 16.8972C10.7595 17.0847 10.5051 17.1901 10.2399 17.1901H10.1899Z" fill="#445FAC"/>
</svg>
