<svg width="487" height="155" viewBox="0 0 487 155" fill="none" xmlns="http://www.w3.org/2000/svg">
<path d="M26 128.838V110.338C22.3333 108.838 15.8534 104.907 13.5 103.338C10.5 101.338 6.33333 97.5044 4.5 95.8378C4.5 95.8378 2.3 93.7378 1.5 91.3378C0.7 88.9378 0.62211 86.8378 0.433165 85.3378C0.190699 86.7256 0.054444 87.9667 0 88.8378L1 123.838C1 124.338 2.3 125.638 3.5 126.838C4.7 128.038 6.5 128.838 7.5 128.838H26Z" fill="url(#paint0_linear_97_398)"/>
<path d="M51.5 25.3378H2.5V42.8378C2.5 43.3378 3.25135 45.9013 4.5 46.8378C5.5 47.5878 8.5 48.3378 8.5 48.3378H48C50.5 48.3378 55.5 52.3378 55.5 60.3378C55.5 67.8378 51 70.8378 48 70.8378H15.5C12.5 70.8378 5.9 73.6378 3.5 76.8378C1.88399 78.9924 0.932947 82.477 0.433165 85.3378C0.62211 86.8378 0.7 88.9378 1.5 91.3378C2.3 93.7378 4.5 95.8378 4.5 95.8378C6.33333 97.5044 10.5 101.338 13.5 103.338C15.8534 104.907 22.3333 108.838 26 110.338C23.6667 106.671 18 100.238 18 97.8378C18 95.4378 20 92.3378 21 92.3378H51.5C60.5 92.3378 77.4 77.0378 77 57.8378C76.6 38.6378 60.5 25.3378 51.5 25.3378Z" fill="url(#paint1_linear_97_398)"/>
<path d="M121.939 112V29.7322H152.495C158.293 29.7322 163.425 30.9075 167.891 33.258C172.357 35.5302 175.844 38.7425 178.351 42.8951C180.858 46.9693 182.112 51.7095 182.112 57.1157C182.112 62.4435 180.897 67.1837 178.468 71.3362C176.04 75.4888 172.71 78.7795 168.479 81.2084C164.248 83.5589 159.351 84.7341 153.788 84.7341H138.04V112H121.939ZM138.04 69.9259H153.436C157.04 69.9259 159.978 68.7507 162.25 66.4002C164.6 63.9713 165.776 60.8765 165.776 57.1157C165.776 53.3548 164.483 50.2992 161.897 47.9487C159.39 45.5982 156.139 44.4229 152.143 44.4229H138.04V69.9259ZM224.864 112L224.394 100.13V82.2661C224.394 78.7403 224.003 75.7238 223.219 73.2166C222.514 70.7094 221.339 68.7898 219.693 67.4579C218.126 66.0476 215.972 65.3424 213.229 65.3424C210.722 65.3424 208.45 65.8909 206.413 66.9878C204.376 68.0847 202.652 69.7692 201.242 72.0414L187.609 67.3404C188.706 64.8331 190.312 62.4043 192.427 60.0538C194.543 57.6249 197.285 55.6662 200.654 54.1775C204.102 52.6105 208.293 51.827 213.229 51.827C219.184 51.827 224.12 52.9631 228.038 55.2352C232.033 57.5074 234.972 60.7198 236.852 64.8723C238.811 68.9465 239.751 73.8043 239.673 79.4455L239.32 112H224.864ZM208.411 113.41C201.359 113.41 195.875 111.843 191.957 108.709C188.118 105.575 186.199 101.148 186.199 95.4289C186.199 89.1609 188.275 84.4599 192.427 81.3259C196.658 78.1135 202.574 76.5073 210.174 76.5073H225.099V88.0248H215.58C210.487 88.0248 206.961 88.6516 205.003 89.9052C203.044 91.0805 202.064 92.765 202.064 94.9588C202.064 96.6825 202.848 98.0537 204.415 99.0722C205.982 100.012 208.176 100.483 210.996 100.483C213.582 100.483 215.854 99.8949 217.813 98.7196C219.85 97.466 221.456 95.899 222.631 94.0186C223.807 92.0599 224.394 90.0619 224.394 88.0248H228.155C228.155 96.0165 226.627 102.245 223.572 106.711C220.594 111.177 215.541 113.41 208.411 113.41ZM276.247 113.41C269.744 113.41 264.808 111.804 261.439 108.592C258.148 105.379 256.503 100.796 256.503 94.8413V34.9034H272.016V91.4331C272.016 93.9403 272.564 95.8598 273.661 97.1918C274.758 98.4454 276.364 99.0722 278.48 99.0722C279.263 99.0722 280.125 98.9155 281.065 98.6021C282.006 98.2104 282.985 97.6619 284.003 96.9568L289.41 108.592C287.529 110.002 285.414 111.138 283.063 112C280.791 112.94 278.519 113.41 276.247 113.41ZM246.983 66.4002V53.2373H286.707V66.4002H246.983ZM299.44 112V29.7322H314.953V112H299.44ZM338.458 112V81.9135H353.971V112H338.458ZM338.458 81.9135C338.458 77.9176 337.988 74.8228 337.048 72.629C336.108 70.4352 334.815 68.8682 333.17 67.928C331.524 66.9094 329.605 66.4002 327.411 66.4002C323.415 66.3218 320.32 67.5362 318.126 70.0434C316.011 72.5506 314.953 76.2723 314.953 81.2084H309.782C309.782 74.9403 310.683 69.6517 312.485 65.3424C314.365 60.9548 316.951 57.6249 320.242 55.3528C323.611 53.0023 327.528 51.827 331.994 51.827C336.695 51.827 340.652 52.7672 343.864 54.6476C347.155 56.528 349.662 59.4662 351.386 63.462C353.11 67.3795 353.971 72.4723 353.971 78.7403V81.9135H338.458ZM366.348 112V29.7322H381.862V112H366.348ZM407.023 136.915C404.908 136.915 402.557 136.484 399.972 135.623C397.464 134.839 395.231 133.899 393.273 132.802L399.031 120.227C400.363 120.932 401.578 121.48 402.675 121.872C403.85 122.342 404.869 122.577 405.73 122.577C407.376 122.577 408.825 122.107 410.079 121.167C411.332 120.305 412.351 119.012 413.134 117.289L420.068 100.953L438.755 53.2373H455.796L429.118 117.054C427.473 120.971 425.749 124.419 423.947 127.396C422.145 130.451 419.912 132.802 417.248 134.447C414.662 136.093 411.254 136.915 407.023 136.915ZM415.955 112L389.042 53.2373H406.083L425.71 100.953L430.763 112H415.955Z" fill="#00020E"/>
<path d="M354 41.5454L373.2 11L392.4 41.5454C390.073 39.7999 381.578 36.309 373.2 36.309C364.822 36.309 356.909 39.7999 354 41.5454Z" fill="url(#paint2_linear_97_398)"/>
<defs>
<linearGradient id="paint0_linear_97_398" x1="38.5034" y1="25.3378" x2="38.5034" y2="128.838" gradientUnits="userSpaceOnUse">
<stop stop-color="#428B7D"/>
<stop offset="1" stop-color="#81C3B7"/>
</linearGradient>
<linearGradient id="paint1_linear_97_398" x1="38.5034" y1="25.3378" x2="38.5034" y2="128.838" gradientUnits="userSpaceOnUse">
<stop offset="0.0288462" stop-color="#26355F"/>
<stop offset="0.3125" stop-color="#3B5295"/>
<stop offset="0.769231" stop-color="#354A86"/>
<stop offset="1" stop-color="#C0E1DB"/>
</linearGradient>
<linearGradient id="paint2_linear_97_398" x1="373.2" y1="11" x2="373.2" y2="41.5454" gradientUnits="userSpaceOnUse">
<stop stop-color="#81C3B7"/>
<stop offset="1" stop-color="#59B0A0"/>
</linearGradient>
</defs>
</svg>